<svg width="52" height="52" viewBox="0 0 52 52" fill="none" xmlns="http://www.w3.org/2000/svg">
<path d="M26.3271 44.0323C26.3271 40.1471 26.3271 36.4778 26.3271 32.8804C26.3271 30.4342 26.3271 27.9879 26.3271 25.5417C26.3271 25.11 26.543 24.5344 26.9027 24.3906C31.9391 21.8004 36.9035 19.2823 41.9398 16.7641C42.0118 16.6921 42.1557 16.7641 42.4435 16.6921C42.4435 17.0519 42.5154 17.4116 42.5154 17.7714C42.5154 23.1674 42.5154 28.4916 42.5154 33.8877C42.5154 35.1108 42.0837 35.7583 41.0045 36.3339C36.184 38.7801 31.4354 41.3702 26.3271 44.0323Z" fill="white"/>
<path d="M24.8162 43.8881C23.8808 43.3845 22.9455 42.8808 22.0102 42.3772C18.0531 40.2907 14.0959 38.2762 10.2108 36.1177C9.63518 35.83 8.9157 35.0385 8.9157 34.4629C8.84375 28.5632 8.84375 22.6635 8.84375 16.4041C10.6424 17.3394 12.2972 18.1308 13.8801 18.9942C14.0959 19.1381 14.1679 19.7137 14.1679 20.0734C14.1679 22.3038 14.2398 24.4622 14.1679 26.6926C14.1679 27.6279 14.4557 28.2035 15.4629 27.9157C16.4702 27.6279 16.9019 28.4913 17.4775 28.923C17.8372 29.2108 18.2689 29.3547 18.7006 29.5705C18.8445 29.1388 19.1323 28.7071 19.1323 28.2754C19.2042 26.117 19.1323 23.9586 19.1323 21.6562C21.0749 22.6635 22.8016 23.5269 24.5284 24.3903C24.7442 24.5342 24.9601 24.9658 24.9601 25.2536C24.9601 31.3692 24.9601 37.4128 24.9601 43.5284C25.032 43.6003 24.9601 43.6723 24.8162 43.8881Z" fill="white"/>
<path d="M24.6724 0C38.99 0.0719478 49.998 10.1446 51.2211 23.383C52.4442 36.6214 43.1629 48.6367 29.8526 50.939C24.3126 51.8744 18.9885 50.939 13.9521 48.4928C13.7363 48.4209 13.5205 48.3489 13.3766 48.1331C13.1607 47.9172 13.0888 47.5575 12.9449 47.2697C13.3046 47.1977 13.6644 46.9819 14.0241 47.0539C14.3838 47.1258 14.7436 47.4136 15.1033 47.5575C23.737 51.4427 32.1549 50.8671 39.8534 45.3991C47.4798 39.931 50.7894 32.1607 49.8541 22.8074C48.8468 12.9506 41.652 4.74855 32.083 2.08649C22.5859 -0.503634 12.5132 2.87791 6.39763 10.6483C6.03789 11.08 5.03062 11.7275 4.95868 11.6555C4.16725 10.8641 5.03062 10.3605 5.46231 9.92879C10.6426 3.38155 17.4056 0.143896 24.6724 0Z" fill="white"/>
<path d="M41.7963 15.3968C36.4721 18.0588 31.4358 20.649 26.3275 23.2391C26.0397 23.383 25.5361 23.4549 25.1763 23.311C23.4496 22.5196 21.7948 21.6562 19.9961 20.7209C20.4278 20.4331 20.7156 20.2892 21.0034 20.1453C25.68 17.771 30.3566 15.3968 35.0332 13.0225C35.8246 12.6628 36.4002 12.5908 37.1916 13.0225C38.6306 13.742 40.0695 14.4614 41.7963 15.3968Z" fill="white"/>
<path d="M31.1481 9.78495C30.6445 10.0727 30.2848 10.2886 29.997 10.4325C25.3204 12.8068 20.5718 15.181 15.8952 17.5553C15.1757 17.915 14.6001 17.987 13.8807 17.5553C12.5856 16.8358 11.1466 16.1883 9.63574 15.3969C10.0674 15.1091 10.3552 14.8932 10.715 14.7493C15.2477 12.3751 19.7804 10.0008 24.3131 7.55457C25.3204 7.05093 26.1118 6.97899 27.0471 7.55457C28.3422 8.34599 29.7092 8.99353 31.1481 9.78495Z" fill="white"/>
<path d="M4.52689 12.0873C5.75 11.9434 6.82922 11.7275 7.98039 11.6556C8.26818 11.6556 8.62792 11.9434 8.91571 12.0873C8.62792 12.3031 8.41207 12.7348 8.12428 12.8068C7.18896 13.0226 6.18169 13.1665 5.17442 13.3104C4.09521 13.4543 3.37573 12.9507 3.15988 11.9434C2.87209 10.8642 2.7282 9.78495 2.65625 8.77768C2.65625 8.48989 2.94404 8.2021 3.08794 7.91431C3.37573 8.13015 3.73547 8.34599 3.80741 8.63378C4.09521 9.78495 4.31105 10.7922 4.52689 12.0873Z" fill="white"/>
<path d="M1.72112 28.1316C1.43333 28.7072 1.14554 29.1389 0.929698 29.4986C0.641907 29.0669 0.21022 28.7072 0.21022 28.2755C0.21022 27.556 -0.509258 26.5488 0.713854 26.261C0.929698 26.261 1.36138 27.4841 1.72112 28.1316Z" fill="white"/>
<path d="M0.569336 31.0814C0.713232 30.9375 0.857127 30.5059 1.07297 30.5059C1.36076 30.5059 1.79245 30.7217 1.8644 30.9375C2.08024 31.5131 2.29608 32.1607 2.29608 32.7362C2.29608 33.024 2.00829 33.3118 1.8644 33.5996C1.64855 33.4557 1.21687 33.3838 1.14492 33.1679C0.929075 32.5923 0.785179 31.8729 0.569336 31.0814Z" fill="white"/>
<path d="M5.24689 41.37C4.8152 40.4347 4.31157 39.4994 3.87988 38.5641C4.16767 38.4921 4.67131 38.2763 4.74326 38.3482C5.24689 38.9958 5.75053 39.7152 6.18221 40.4347C6.25416 40.5786 5.89442 41.0103 5.75053 41.2261C5.60663 41.2981 5.46273 41.2981 5.24689 41.37Z" fill="white"/>
<path d="M6.82913 41.1543C7.69251 42.1616 8.34004 42.953 8.98757 43.6725C8.69978 43.8883 8.19614 44.2481 8.12419 44.1761C7.47666 43.6725 6.90108 43.0969 6.4694 42.4494C6.3255 42.3055 6.61329 41.8018 6.82913 41.1543Z" fill="white"/>
<path d="M9.7799 44.1038C10.8591 44.9671 11.5786 45.6147 12.2981 46.1902C12.0103 46.4061 11.6505 46.9097 11.5066 46.8378C10.7872 46.4061 10.1396 45.9744 9.56406 45.3988C9.42016 45.3269 9.636 44.8232 9.7799 44.1038Z" fill="white"/>
<path d="M4.02284 36.9091C3.87895 37.125 3.807 37.4128 3.59115 37.4847C3.37531 37.5567 2.94362 37.4847 2.87168 37.3408C2.51194 36.6214 2.22415 35.9738 1.93636 35.2543C1.86441 35.1104 2.08025 34.6068 2.1522 34.6068C2.36804 34.5349 2.87168 34.6068 2.94362 34.8227C3.37531 35.3982 3.6631 36.1177 4.02284 36.9091Z" fill="white"/>
</svg>
