<svg width="58" height="43" viewBox="0 0 58 43" fill="none" xmlns="http://www.w3.org/2000/svg">
<path d="M6.41928 16.5686C7.54699 16.5686 8.6747 16.5686 9.80241 16.5686C9.88916 16.5686 10.0626 16.5686 10.1494 16.5686C10.4964 16.5686 10.6699 16.3951 10.6699 16.0481C10.6699 15.7879 10.4964 15.6144 10.1494 15.5276C9.45542 15.5276 8.76145 15.5276 8.06747 15.5276C7.54699 15.5276 6.93976 15.5276 6.33253 15.5276C6.33253 14.9204 6.33253 14.3999 6.33253 13.7927C6.59277 13.7927 6.76626 13.7927 7.02651 13.7927C7.72048 13.7927 8.41446 13.7927 9.10843 13.7927C9.54217 13.7927 9.71566 13.6192 9.71566 13.2722C9.71566 12.9252 9.54217 12.8385 9.10843 12.8385C8.15422 12.8385 7.28675 12.8385 6.33253 12.8385C6.33253 11.971 6.33253 11.1036 6.33253 10.2361C6.50602 10.2361 6.59277 10.2361 6.67952 10.2361C11.6241 10.2361 16.6554 10.2361 21.6 10.2361C21.8602 10.2361 22.0337 10.3228 22.1205 10.5831C23.5084 13.2722 25.6771 14.8337 28.6265 15.0939C32.0096 15.4409 35.306 13.5325 36.694 10.4963C36.7807 10.3228 36.8675 10.2361 37.1277 10.2361C38.7759 10.2361 40.3373 10.2361 41.9855 10.2361C42.3325 10.2361 42.6795 10.2361 43.0265 10.2361C43.0265 10.3228 43.0265 10.4963 43.0265 10.5831C43.0265 17.4361 43.0265 24.2891 43.0265 31.0554C43.0265 31.3156 42.9398 31.4023 42.6795 31.5758C42.3325 31.7493 41.8988 31.8361 41.5518 31.8361C35.653 31.9228 29.5807 32.0096 23.5084 32.1831C20.9928 32.1831 18.4771 32.2698 15.9614 32.2698C15.7879 32.2698 15.6145 32.1831 15.441 32.0963C13.4458 30.8819 11.5373 30.8819 9.54217 32.0963C9.36867 32.1831 9.10843 32.2698 8.93494 32.2698C8.06747 32.2698 7.28675 32.2698 6.33253 32.2698C6.33253 31.4891 6.33253 30.7951 6.33253 30.0144C6.33253 29.6674 6.33253 29.2337 6.33253 28.8867C6.33253 28.3662 6.15904 28.1927 5.63855 28.1927C4.16386 28.1927 2.7759 28.1927 1.3012 28.1927C1.12771 28.1927 0.954217 28.1927 0.86747 28.1927C0.346988 28.1927 0 27.8457 0 27.3252C0 26.8915 0.346988 26.4578 0.86747 26.4578C2.42892 26.4578 4.07711 26.4578 5.63855 26.4578C6.24578 26.4578 6.33253 26.2843 6.33253 25.677C6.33253 24.4626 6.33253 23.2481 6.33253 22.1204C6.33253 21.5999 6.15904 21.4264 5.63855 21.4264C4.85783 21.4264 4.07711 21.4264 3.29639 21.4264C2.68916 21.4264 2.34217 21.0795 2.34217 20.6457C2.34217 20.1252 2.68916 19.6915 3.29639 19.6915C4.07711 19.6915 4.94458 19.6915 5.7253 19.6915C6.24578 19.6915 6.33253 19.518 6.33253 19.0843C6.41928 18.3036 6.41928 17.4361 6.41928 16.5686Z" fill="white"/>
<path d="M44.2409 15.2676C45.0216 15.2676 45.8023 15.3543 46.583 15.3543C48.0577 15.4411 49.4457 15.5278 50.9204 15.6146C51.8746 15.7013 52.9156 15.7013 53.8698 15.7881C54.0433 15.7881 54.2168 15.8748 54.2168 16.0483C55.2577 18.6507 56.3855 21.3399 57.4264 23.9423C57.5132 24.1158 57.5132 24.2025 57.5132 24.376C57.5132 26.8049 57.5999 29.2338 57.5999 31.6628C57.5999 31.6628 57.5999 31.7495 57.5999 31.8363C57.4264 31.8363 57.3397 31.8363 57.1662 31.8363C54.6505 31.8363 52.1349 31.8363 49.6192 31.8363C49.5324 31.8363 49.4457 31.8363 49.2722 31.8363C49.012 31.923 48.8385 32.0965 48.8385 32.3567C48.8385 32.617 49.012 32.7905 49.3589 32.7905C49.7927 32.7905 50.2264 32.7905 50.6602 32.7905C52.8288 32.7905 54.9975 32.7905 57.1662 32.7905C57.2529 32.7905 57.4264 32.7905 57.5999 32.7905C57.5999 33.9182 57.5999 34.9591 57.5999 36.0869C55.171 36.0869 52.6553 36.0869 50.1397 36.0869C49.9662 34.6122 49.3589 33.3977 48.1445 32.4435C47.0168 31.4893 45.6288 31.1423 44.0674 31.229C44.2409 25.9375 44.2409 20.6459 44.2409 15.2676ZM48.2312 18.3037C50.2264 19.9519 52.0481 21.5134 53.9565 23.0748C53.4361 21.5134 52.8288 20.0387 52.2216 18.564C52.1349 18.3905 52.0481 18.3037 51.7879 18.3037C50.8336 18.3037 49.8794 18.217 48.9252 18.217C48.7517 18.3037 48.5782 18.3037 48.2312 18.3037Z" fill="white"/>
<path d="M29.581 14.2265C25.6774 14.2265 22.4678 11.0169 22.4678 7.11325C22.4678 3.20964 25.6774 0 29.581 0C33.4846 0 36.6943 3.20964 36.6943 7.11325C36.6943 11.0169 33.4846 14.2265 29.581 14.2265ZM29.234 7.98072C29.3208 7.89398 29.4075 7.80723 29.581 7.72048C30.0148 7.37349 30.5352 7.02651 30.969 6.67952C31.9232 5.98554 32.8774 5.20482 33.8316 4.51084C34.2654 4.2506 34.2654 3.73012 33.8316 3.64337C33.6581 3.55663 33.3979 3.64337 33.2244 3.73012C31.8364 4.68434 30.5352 5.7253 29.234 6.67952C29.0605 6.76626 28.8871 6.85301 28.7136 6.76626C27.8461 6.67952 26.9786 6.50602 26.0244 6.33253C25.6774 6.24578 25.4172 6.41928 25.3304 6.67952C25.2437 6.93976 25.4172 7.2 25.7642 7.28675C26.1111 7.37349 26.3714 7.37349 26.7184 7.46024C27.5858 7.63374 28.3666 7.80723 29.234 7.98072Z" fill="white"/>
<path d="M12.0581 41.1183C9.28216 40.6846 7.80746 38.3424 8.0677 36.087C8.32794 33.7448 10.4099 32.0099 12.752 32.0966C15.0942 32.1834 16.9159 34.0918 17.0026 36.434C17.0894 38.7761 15.3544 40.7713 13.0123 41.1183C23.4219 41.1183 33.9183 41.1183 44.4147 41.1183C41.6388 40.6846 40.1641 38.4291 40.4243 36.087C40.5978 33.9183 42.593 32.1834 44.7617 32.0966C47.1038 32.0966 49.099 33.7448 49.3593 36.0002C49.6195 38.2557 48.2316 40.5978 45.3689 41.1183C46.4099 41.1183 47.5376 41.1183 48.5785 41.1183C50.3135 41.1183 52.0484 41.1183 53.6966 41.1183C54.1303 41.1183 54.3038 41.3785 54.3038 41.6388C54.2171 41.9858 54.0436 42.0725 53.6966 42.0725C52.6557 42.0725 51.6147 42.0725 50.6605 42.0725C43.7207 42.0725 36.6942 42.0725 29.7544 42.0725C21.6002 42.0725 13.5328 42.0725 5.37855 42.0725C5.2918 42.0725 5.2918 42.0725 5.20505 42.0725C4.94481 42.0725 4.68457 41.8123 4.68457 41.552C4.68457 41.2918 4.85806 41.1183 5.20505 41.0316C5.63879 41.0316 6.07252 41.0316 6.50626 41.0316C8.15445 41.0316 9.80264 41.0316 11.5376 41.0316C11.7978 41.1183 11.8846 41.1183 12.0581 41.1183ZM9.97614 36.6075C9.97614 37.9954 11.1038 39.1231 12.4918 39.2099C13.8798 39.2099 15.0075 38.0822 15.0075 36.6942C15.0075 35.3063 13.8798 34.1785 12.4918 34.1785C11.1038 34.0918 10.0629 35.2195 9.97614 36.6075ZM42.3328 36.6075C42.3328 37.9954 43.4605 39.1231 44.8484 39.1231C46.2364 39.1231 47.3641 37.9954 47.3641 36.6075C47.3641 35.2195 46.2364 34.0918 44.9352 34.0918C43.4605 34.0918 42.3328 35.2195 42.3328 36.6075Z" fill="white"/>
<path d="M17.9566 36.0866C17.7832 35.0456 17.4362 34.0914 16.7422 33.2239C24.8097 33.0504 32.8771 32.9637 41.0313 32.877C40.1639 33.8312 39.6434 34.8721 39.5566 36.1733C32.2699 36.0866 25.1566 36.0866 17.9566 36.0866Z" fill="white"/>
<path d="M6.41992 9.28174C6.41992 8.67451 6.41992 8.15403 6.41992 7.63354C11.4512 7.63354 16.3958 7.63354 21.4271 7.63354C21.5139 8.15403 21.6006 8.76126 21.6874 9.28174C16.6561 9.28174 11.538 9.28174 6.41992 9.28174Z" fill="white"/>
<path d="M3.90332 33.3108C5.37802 33.3108 6.76597 33.3108 8.32742 33.3108C7.63344 34.1783 7.28645 35.1325 7.19971 36.1734C6.07199 36.1734 5.03103 36.1734 3.99007 36.1734C3.90332 35.2192 3.90332 34.265 3.90332 33.3108Z" fill="white"/>
<path d="M37.3877 9.28174C37.4744 8.76126 37.5612 8.24077 37.6479 7.63354C39.4696 7.63354 41.2913 7.63354 43.113 7.63354C43.113 8.15403 43.113 8.67451 43.113 9.28174C41.2046 9.28174 39.2961 9.28174 37.3877 9.28174Z" fill="white"/>
<path d="M11.0166 36.6071C11.0166 35.7396 11.7106 35.0457 12.4913 35.0457C13.3588 35.0457 14.0527 35.7396 14.0527 36.6071C14.0527 37.4746 13.3588 38.1685 12.4913 38.1685C11.7106 38.1685 11.0166 37.4746 11.0166 36.6071Z" fill="white"/>
<path d="M44.8486 35.0457C45.716 35.0457 46.41 35.7396 46.41 36.6071C46.41 37.4746 45.716 38.1685 44.8486 38.1685C43.9811 38.1685 43.2871 37.4746 43.2871 36.6071C43.2871 35.7396 43.9811 35.0457 44.8486 35.0457Z" fill="white"/>
</svg>
