<svg width="46" height="52" viewBox="0 0 46 52" fill="none" xmlns="http://www.w3.org/2000/svg">
<path d="M23.9571 0C24.4597 0.0837662 24.9623 0.0837662 25.3811 0.167532C31.0773 1.08896 35.7682 5.27727 37.4435 10.8058C37.7785 11.8948 37.9461 13.0675 38.0298 14.1565C38.0298 14.324 38.1136 14.4078 38.1974 14.4916C39.035 14.9942 39.4539 15.7481 39.4539 16.7532C39.4539 18.3448 39.4539 20.0201 39.4539 21.6117C39.4539 23.6221 37.3597 24.711 35.6844 23.8734C35.5169 23.7896 35.4331 23.7896 35.2656 23.8734C33.674 24.9623 31.9987 25.5487 30.1558 25.8838C29.737 25.9675 29.3182 25.9675 28.8156 26.0513C28.7318 26.0513 28.5643 26.1351 28.4805 26.2188C28.1454 26.6377 27.8104 26.8052 27.224 26.8052C26.5539 26.8052 25.8837 26.8052 25.2974 26.8052C24.4597 26.8052 23.7896 26.1351 23.7896 25.3812C23.7896 24.5435 24.376 23.8734 25.2136 23.8734C25.8837 23.8734 26.5539 23.8734 27.3078 23.8734C27.7266 23.8734 28.1454 24.0409 28.3967 24.376C28.4805 24.4597 28.5643 24.5435 28.648 24.5435C30.6584 24.376 32.585 23.7896 34.2604 22.7006C34.3441 22.7006 34.3441 22.6169 34.3441 22.6169C34.3441 22.1143 34.2604 21.6117 34.2604 21.1929C34.2604 19.6851 34.2604 18.1773 34.2604 16.7532C34.2604 15.8318 34.6792 15.0779 35.4331 14.5753C35.5169 14.4916 35.6006 14.4078 35.6006 14.2403C35.2656 8.46039 30.826 3.51818 25.1298 2.51299C18.261 1.25649 11.7272 5.61234 10.3032 12.3974C10.1357 12.9838 10.1357 13.5701 10.0519 14.1565C10.0519 14.324 10.0519 14.4078 10.2195 14.4916C11.0571 14.9942 11.476 15.7481 11.476 16.6695C11.476 18.261 11.476 19.9364 11.476 21.5279C11.476 23.0357 10.387 24.0409 8.8792 24.0409C7.45517 24.0409 6.36621 22.9519 6.36621 21.5279C6.36621 19.9364 6.36621 18.261 6.36621 16.6695C6.36621 15.6643 6.78504 14.9942 7.6227 14.4078C7.70647 14.324 7.79024 14.2403 7.79024 14.1565C8.29283 7.53896 12.9837 2.01039 19.5175 0.418831C20.2714 0.251299 21.0253 0.167532 21.7792 0.0837662C21.863 0.0837662 21.9467 0.0837662 22.0305 0C22.6169 0 23.287 0 23.9571 0Z" fill="white"/>
<path d="M31.3281 27.3077C30.0716 29.1506 28.6476 30.7421 26.7209 31.8311C23.7891 33.4226 21.0248 33.0876 18.3443 31.1609C16.669 29.9882 15.3287 28.3967 14.2398 26.6376C13.6534 25.7161 13.2346 24.7109 12.732 23.7895C12.6482 23.622 12.6482 23.4545 12.732 23.3707C12.9833 22.8681 13.067 22.2817 13.067 21.6116C13.067 20.02 13.067 18.4285 13.067 16.7532C13.067 15.5804 12.6482 14.659 11.8943 13.8213C11.8105 13.7376 11.8105 13.57 11.8105 13.4863C12.3969 8.96289 15.9989 5.10965 20.5222 4.18822C26.6372 2.84796 32.5008 6.61744 33.9248 12.7324C33.9248 12.8161 33.9248 12.8161 33.9248 12.8999C34.0924 13.4025 34.0086 13.8213 33.5898 14.3239C33.0034 14.9941 32.7521 15.9155 32.7521 16.8369C32.7521 18.4285 32.7521 20.1038 32.7521 21.6954C32.7521 21.9467 32.6683 22.0304 32.5008 22.1142C31.4956 22.6168 30.4067 22.8681 29.2339 23.0356C29.1502 23.0356 29.0664 23.0356 28.9826 22.9519C28.48 22.6168 27.8937 22.4493 27.2235 22.4493C26.5534 22.4493 25.967 22.4493 25.2969 22.4493C23.6216 22.4493 22.2813 23.7895 22.1976 25.4648C22.1976 27.1402 23.5378 28.5642 25.2131 28.5642C26.0508 28.5642 26.8047 28.5642 27.6424 28.5642C28.3125 28.5642 28.8151 28.2291 29.3177 27.8941C29.4015 27.8103 29.569 27.7265 29.7365 27.7265C30.2391 27.4752 30.8255 27.3915 31.3281 27.3077Z" fill="white"/>
<path d="M1.67532 47.8304C2.76429 48.6681 3.93701 49.1707 5.19351 49.5895C7.2039 50.2596 9.38182 50.6785 11.476 51.0135C13.4026 51.2648 15.3292 51.4324 17.2558 51.5999H28.3968C28.4805 51.5999 28.5643 51.5999 28.6481 51.5999C32.1662 51.3486 35.6844 51.0135 39.1188 50.0921C40.6266 49.6733 42.0507 49.2544 43.3071 48.4168C43.6422 48.2492 43.8935 47.9979 44.2286 47.8304C45.15 47.1603 45.6526 46.2389 45.8201 45.1499C45.8201 45.0661 45.8201 44.9824 45.9039 44.9824C45.9039 44.4798 45.9039 43.8934 45.9039 43.3908C45.9039 43.3908 45.9039 43.307 45.8201 43.307C45.3175 41.2966 44.5636 39.2863 43.3909 37.5272C42.4695 36.1031 41.2968 34.8466 39.7052 34.0928C38.2812 33.4226 36.7734 33.1713 35.2656 33.0038C34.3442 32.92 33.4227 32.92 32.5851 32.8363C32.25 32.8363 31.8312 32.7525 31.4961 32.6687C31.2448 33.4226 30.826 34.009 30.4071 34.6791C28.8156 36.857 26.9727 38.8674 25.2136 40.7941C25.2136 40.7941 25.2136 40.7941 25.1299 40.7941C24.7948 39.4538 24.4597 38.1135 24.1247 36.857C24.1247 36.7733 24.1247 36.6895 24.2084 36.6895C24.9623 36.1031 25.0461 35.2655 25.0461 34.3441C23.7058 34.3441 22.3656 34.3441 21.0253 34.3441C21.0253 34.5116 21.0253 34.6791 21.0253 34.8466C21.1091 35.5168 21.2766 36.1869 21.863 36.6057C21.9468 36.6057 21.9468 36.7733 21.9468 36.857C21.6955 37.7785 21.4442 38.6999 21.2766 39.6213C21.1929 39.9564 21.1091 40.3752 21.0253 40.7103H20.9416C20.9416 40.7103 20.9416 40.6265 20.8578 40.6265C19.35 38.8674 17.8422 37.1921 16.4182 35.433C15.6643 34.5116 14.9942 33.6739 14.5753 32.585C13.7377 32.6687 12.9 32.7525 12.0623 32.8363C10.8896 32.92 9.71688 33.0038 8.54416 33.2551C6.45 33.6739 4.69091 34.6791 3.35065 36.3544C2.34545 37.5272 1.67532 38.8674 1.08896 40.2915C0.67013 41.3804 0.251299 42.5531 0 43.7259C0 43.9772 0 44.2285 0 44.4798C0.0837662 44.7311 0.0837662 45.0661 0.167532 45.3174C0.335065 46.3226 0.837662 47.1603 1.67532 47.8304Z" fill="white"/>
</svg>
