<svg width="50" height="50" viewBox="0 0 50 50" fill="none" xmlns="http://www.w3.org/2000/svg">
<path d="M0.0860627 24.6139C0.0860627 17.2986 0.0860627 9.89721 0.0860627 2.58188C0.0860627 0.860627 0.94669 0 2.66794 0C14.5446 0 26.5073 0 38.384 0C39.847 0 40.7937 0.94669 40.8798 2.40976C40.8798 8.7784 40.8798 15.061 40.8798 21.4296C40.8798 22.1181 40.7077 22.2042 40.1052 22.0321C39.5888 21.946 39.0725 21.8599 38.5561 21.8599C37.9537 21.8599 37.8676 21.6878 37.8676 21.1714C37.8676 16.2659 37.8676 11.4463 37.8676 6.54077C37.8676 5.50801 37.7815 5.42195 36.7488 5.42195C25.8188 5.42195 14.9749 5.42195 4.04495 5.42195C3.09826 5.42195 3.0122 5.50801 3.0122 6.4547C3.0122 19.4502 3.0122 32.4456 3.0122 45.4411C3.0122 46.3878 3.09826 46.4739 4.04495 46.4739C14.9749 46.4739 25.9909 46.4739 36.9209 46.4739C37.7815 46.4739 37.8676 46.3878 37.8676 45.5272C37.8676 45.0969 38.0397 44.9247 38.47 44.8387C39.0725 44.7526 39.6749 44.6666 40.1913 44.5805C40.6216 44.4944 40.7937 44.5805 40.7937 45.0108C40.7937 45.6993 40.7937 46.3878 40.7937 47.1624C40.7077 48.5394 39.761 49.4 38.47 49.4C26.5073 49.4 14.4585 49.4 2.49582 49.4C0.94669 49.4 0 48.4533 0 46.9042C0.0860627 39.4167 0.0860627 32.0153 0.0860627 24.6139ZM26.3352 3.52857C29.6056 3.52857 32.876 3.52857 36.1463 3.52857C36.3185 3.52857 36.5767 3.52857 36.7488 3.44251C37.1791 3.27038 37.3512 2.92613 37.2652 2.49582C37.093 1.89338 36.6627 1.80732 36.1463 1.80732C29.6056 1.80732 23.0648 1.80732 16.524 1.80732C15.7495 1.80732 15.4052 2.15157 15.4052 2.66794C15.4052 3.18432 15.8355 3.52857 16.524 3.52857C19.7944 3.52857 23.0648 3.52857 26.3352 3.52857ZM6.71289 2.66794C6.71289 2.23763 6.28258 1.80732 5.85226 1.80732C5.42195 1.80732 4.99164 2.23763 4.99164 2.66794C4.99164 3.09826 5.42195 3.52857 5.85226 3.52857C6.28258 3.44251 6.71289 3.09826 6.71289 2.66794ZM9.03658 2.66794C9.03658 2.23763 8.69233 1.80732 8.17596 1.80732C7.74564 1.80732 7.31533 2.23763 7.31533 2.66794C7.31533 3.09826 7.65958 3.52857 8.0899 3.52857C8.52021 3.52857 8.95052 3.09826 9.03658 2.66794ZM4.3892 2.58188C4.3892 2.15157 3.95888 1.72125 3.52857 1.72125C3.09826 1.72125 2.66794 2.15157 2.66794 2.58188C2.66794 3.0122 3.09826 3.44251 3.52857 3.44251C4.04495 3.44251 4.3892 3.0122 4.3892 2.58188Z" fill="white"/>
<path d="M34.0807 32.3594C33.7364 31.2406 33.3922 30.2078 33.0479 29.089C31.757 25.3022 30.5521 21.4294 29.2612 17.6427C29.1751 17.2984 29.089 16.8681 29.089 16.5238C29.089 15.9214 29.3472 15.405 29.9497 15.1468C30.5521 14.8887 31.1546 14.9747 31.5849 15.4911C31.8431 15.7493 32.0152 16.0935 32.1873 16.4378C33.2201 18.9336 34.1667 21.4294 35.1995 24.0113C35.5438 24.7859 35.6298 24.8719 36.4044 24.4416C37.5232 23.8392 38.642 23.581 39.7608 24.4416C39.8469 24.5277 40.1051 24.5277 40.1911 24.4416C41.2239 24.0113 42.1706 24.0113 43.1173 24.5277C43.2894 24.6998 43.7197 24.6998 43.9779 24.6137C45.527 24.0974 46.4737 24.6137 46.904 26.1629C47.5925 28.4866 48.281 30.8103 49.0556 33.134C49.4859 34.511 49.572 35.888 49.4859 37.351C49.2277 39.7608 49.2277 39.7608 46.904 40.4493C44.2361 41.1378 41.5681 41.8263 38.9002 42.6008C38.0396 42.859 37.3511 42.6869 36.7486 42.0845C35.3716 40.7075 33.9946 39.5026 32.7897 38.2117C31.6709 37.0068 30.8103 35.6298 29.8636 34.2528C29.003 33.134 28.3145 31.9291 27.4539 30.7242C27.2817 30.5521 27.1957 30.2939 27.1096 30.0357C26.6793 29.089 26.8514 28.1423 27.5399 27.6259C28.3145 27.0235 29.4333 27.1096 30.1218 27.8841C30.8964 28.6587 31.5849 29.5193 32.2734 30.3799C32.8758 31.0684 33.3922 31.6709 33.9946 32.3594C34.0807 32.3594 34.0807 32.3594 34.0807 32.3594Z" fill="white"/>
<path d="M6.45508 27.368C6.45508 26.6795 6.45508 25.905 6.45508 25.2165C6.45508 24.528 6.71327 24.2698 7.40177 24.2698C8.86483 24.2698 10.414 24.2698 11.877 24.2698C12.4795 24.2698 12.8237 24.614 12.8237 25.2165C12.8237 26.6795 12.8237 28.2287 12.8237 29.6917C12.8237 30.3802 12.4795 30.6384 11.791 30.6384C10.3279 30.6384 8.86483 30.6384 7.40177 30.6384C6.71327 30.6384 6.45508 30.2942 6.45508 29.6917C6.45508 28.9172 6.45508 28.1426 6.45508 27.368Z" fill="white"/>
<path d="M6.45435 37.1791C6.45435 36.4906 6.45435 35.716 6.45435 35.0275C6.45435 34.339 6.7986 34.0808 7.40104 34.0808C8.86411 34.0808 10.3272 34.0808 11.7902 34.0808C12.4787 34.0808 12.7369 34.4251 12.7369 35.0275C12.7369 36.4906 12.7369 37.9536 12.7369 39.4167C12.7369 40.1052 12.3927 40.4494 11.7042 40.4494C10.2411 40.4494 8.77805 40.4494 7.31498 40.4494C6.62648 40.4494 6.28223 40.1052 6.28223 39.4167C6.45435 38.6421 6.45435 37.9536 6.45435 37.1791Z" fill="white"/>
<path d="M9.03644 14.9749C10.4995 13.1676 11.8765 11.5324 13.1675 9.89719C13.6838 9.29475 13.856 9.29475 14.3723 9.72506C14.6305 9.98325 14.8887 10.1554 15.1469 10.4136C15.6633 10.9299 15.6633 11.1021 15.233 11.6184C13.7699 13.4258 12.2208 15.147 10.7577 16.9543C10.4995 17.2125 10.2413 17.5568 9.98313 17.815C9.46675 18.2453 8.86432 18.3313 8.34794 17.901C7.22912 16.8683 6.11031 15.7495 4.99149 14.7167C4.7333 14.4585 4.7333 14.1143 4.99149 13.8561C5.33574 13.5118 5.59393 13.2536 5.93818 12.9094C6.28243 12.4791 6.62668 12.4791 7.057 12.9094C7.7455 13.5118 8.34794 14.2003 9.03644 14.9749Z" fill="white"/>
<path d="M24.3552 10.4134C26.5068 10.4134 28.6583 10.4134 30.8099 10.4134C31.3263 10.4134 31.4984 10.5855 31.4984 11.1019C31.4123 12.9092 31.7566 12.651 29.9493 12.651C25.9043 12.651 21.9454 12.651 17.9005 12.651C17.0399 12.651 17.0399 12.651 17.0399 11.8765C17.0399 10.2413 16.8677 10.4134 18.4169 10.4134C20.4824 10.4134 22.3758 10.4134 24.3552 10.4134Z" fill="white"/>
<path d="M22.0325 17.5568C20.6555 17.5568 19.1925 17.5568 17.8155 17.5568C17.2991 17.5568 17.127 17.3847 17.127 16.8683C17.213 15.061 16.8688 15.3191 18.6761 15.3191C21.1719 15.3191 23.6677 15.3191 26.2496 15.3191C27.0242 15.3191 27.0242 15.3191 27.0242 16.0937C27.0242 17.7289 27.2824 17.5568 25.5611 17.5568C24.4423 17.5568 23.2374 17.5568 22.0325 17.5568Z" fill="white"/>
<path d="M16.0078 24.2698C16.1799 24.2698 16.4381 24.2698 16.6103 24.2698C19.3643 24.2698 22.0322 24.2698 24.7862 24.2698C25.2165 24.2698 25.4747 24.3558 25.3886 24.8722C25.3886 25.3886 25.3886 25.8189 25.3886 26.3353C22.2043 26.3353 19.1061 26.3353 16.0078 26.3353C16.0078 25.5607 16.0078 24.9583 16.0078 24.2698Z" fill="white"/>
<path d="M25.3886 34.0808C25.3886 34.6832 25.3886 35.2857 25.3886 35.8021C25.3886 35.8881 25.0444 36.0603 24.8723 36.0603C23.5813 36.0603 22.3765 36.0603 21.0855 36.0603C19.6224 36.0603 18.1594 36.0603 16.6963 36.0603C16.5242 36.0603 16.266 36.0603 16.0078 36.0603C16.0078 35.3718 16.0078 34.6832 16.0078 34.0808C19.1061 34.0808 22.2043 34.0808 25.3886 34.0808Z" fill="white"/>
<path d="M19.106 30.6384C18.2454 30.6384 17.3847 30.6384 16.4381 30.6384C16.0938 30.6384 15.9217 30.5523 15.9217 30.122C15.9217 28.4868 15.8356 28.4868 17.4708 28.4868C18.9339 28.4868 20.3969 28.4868 21.86 28.4868C22.2043 28.4868 22.3764 28.5729 22.3764 29.0032C22.3764 30.6384 22.4624 30.6384 20.8273 30.6384C20.3109 30.6384 19.7084 30.6384 19.106 30.6384Z" fill="white"/>
<path d="M19.192 38.2979C20.1387 38.2979 20.9993 38.2979 21.946 38.2979C22.2903 38.2979 22.4624 38.3839 22.4624 38.8142C22.4624 40.4494 22.5485 40.4494 20.9133 40.4494C19.4502 40.4494 18.0732 40.4494 16.6101 40.4494C16.1798 40.4494 16.0938 40.3634 16.0938 39.933C16.0938 38.2979 16.0937 38.3839 17.6429 38.2979C18.0732 38.2979 18.6756 38.2979 19.192 38.2979Z" fill="white"/>
<path d="M6.71247 2.66803C6.71247 3.09835 6.36821 3.52866 5.85184 3.52866C5.42152 3.52866 4.99121 3.09835 4.99121 2.66803C4.99121 2.23772 5.42152 1.80741 5.85184 1.80741C6.28215 1.72134 6.71247 2.15166 6.71247 2.66803Z" fill="white"/>
<path d="M9.03656 2.66788C9.03656 3.09819 8.60624 3.52851 8.17593 3.44245C7.74562 3.44245 7.40137 3.01213 7.40137 2.58182C7.40137 2.1515 7.83168 1.72119 8.26199 1.72119C8.60625 1.80725 9.03656 2.23757 9.03656 2.66788Z" fill="white"/>
<path d="M4.3891 2.58182C4.3891 3.01213 4.04485 3.44245 3.61453 3.44245C3.18422 3.44245 2.75391 3.09819 2.75391 2.58182C2.75391 2.1515 3.18422 1.72119 3.61453 1.72119C3.95878 1.80725 4.3891 2.1515 4.3891 2.58182Z" fill="white"/>
</svg>
