<svg width="26" height="29" viewBox="0 0 26 29" fill="none" xmlns="http://www.w3.org/2000/svg">
<path d="M13.2746 28.0752C10.5093 28.0752 7.74404 28.0704 4.97876 28.0799C3.44832 28.0847 2.52338 27.2599 2.09429 25.882C1.88451 25.2002 1.88928 24.4851 1.83683 23.7794C1.6938 21.8962 1.546 20.0129 1.43634 18.1249C1.36959 16.9664 1.2504 15.8126 1.19319 14.654C1.14074 13.5908 1.03109 12.5324 0.950035 11.474C0.892823 10.692 0.830842 9.90537 0.783165 9.12347C0.754559 8.61809 0.878519 8.17469 1.36006 7.9077C1.58891 7.78374 1.84637 7.7599 2.09906 7.7599C3.83928 7.7599 5.57949 7.7599 7.31971 7.7599C7.82032 7.7599 7.81079 7.75513 7.84416 7.26405C7.94905 5.8099 8.24942 4.40342 8.87876 3.08276C9.41274 1.95281 10.147 0.980195 11.3103 0.436674C13.1125 -0.402445 15.1912 -0.0305625 16.5453 1.53802C17.6132 2.77286 18.171 4.22225 18.481 5.79559C18.5954 6.37249 18.686 6.94938 18.6955 7.54058C18.7003 7.70268 18.7909 7.7599 18.9434 7.75513C19.239 7.75036 19.5299 7.75513 19.8254 7.75513C21.4465 7.7599 23.0675 7.77897 24.6885 7.7599C25.1844 7.75513 25.7613 8.27958 25.7613 8.74681C25.7613 9.07102 25.7708 9.39999 25.747 9.7242C25.6468 10.9352 25.5896 12.151 25.4895 13.362C25.3941 14.5396 25.3036 15.7172 25.2225 16.8949C25.1462 18.0296 25.0556 19.1595 24.9698 20.2895C24.8935 21.3193 24.8554 22.3491 24.7553 23.379C24.679 24.1656 24.7171 24.9714 24.474 25.739C24.1688 26.7116 23.6635 27.5173 22.6527 27.8892C22.338 28.0036 22.0138 28.0752 21.6753 28.0752C18.8814 28.0799 16.078 28.0799 13.2746 28.0752C13.2746 28.0799 13.2746 28.0799 13.2746 28.0752ZM13.2794 7.7599C13.8992 7.7599 14.519 7.7599 15.1388 7.7599C15.7586 7.7599 16.3784 7.7599 16.9982 7.7599C17.2938 7.7599 17.3033 7.74559 17.2795 7.44523C17.227 6.81112 17.1222 6.18655 16.9743 5.56674C16.7121 4.4511 16.3069 3.40697 15.5631 2.51063C14.662 1.41883 13.1697 1.11369 11.8824 1.76687C10.9766 2.22457 10.4616 3.03032 10.0707 3.92665C9.57961 5.04706 9.3603 6.22469 9.29355 7.44046C9.27448 7.7599 9.27448 7.7599 9.59392 7.7599C10.8192 7.76466 12.0493 7.76466 13.2794 7.7599ZM13.5654 24.2181C14.7526 24.1656 15.8778 23.9368 16.7693 23.0548C17.3319 22.5017 17.6418 21.839 17.6752 21.0428C17.7276 19.7746 17.0649 18.8925 16.1162 18.1774C15.3486 17.5957 14.4618 17.2381 13.5511 16.9473C12.7501 16.6946 12.0112 16.3275 11.3389 15.8173C10.4807 15.1689 10.4712 14.1057 10.9956 13.381C11.563 12.6039 12.3735 12.2511 13.308 12.1986C14.2472 12.1462 15.1054 12.4418 15.9111 12.9186C16.0113 12.9806 16.1114 13.0473 16.2163 13.0997C16.4356 13.2046 16.6358 13.1331 16.7598 12.9186C16.9028 12.6659 16.8647 12.4609 16.6597 12.3131C15.4439 11.431 14.0946 11.083 12.6119 11.3214C11.5201 11.4978 10.6524 12.0413 10.085 13.0092C9.39844 14.1868 9.55577 15.3835 10.4998 16.3466C11.2054 17.0665 12.1017 17.4813 13.0314 17.8103C13.985 18.1488 14.9147 18.5159 15.7347 19.1309C17.1412 20.1894 16.9696 22.0059 15.5583 22.7735C14.6239 23.2788 13.6369 23.3503 12.6214 23.1453C11.6631 22.9546 10.8049 22.5398 10.0135 21.9725C9.72264 21.7675 9.45088 21.8056 9.26018 22.0678C9.10284 22.2824 9.16482 22.5398 9.43181 22.7448C10.6571 23.6698 12.0255 24.1656 13.5654 24.2181Z" fill="#FC5722"/>
<path d="M13.5656 24.2177C12.0304 24.1653 10.6573 23.6695 9.44153 22.7398C9.17454 22.5347 9.11256 22.2773 9.2699 22.0627C9.4606 21.8005 9.73236 21.7624 10.0232 21.9674C10.8146 22.5347 11.6728 22.9495 12.6311 23.1402C13.6467 23.3405 14.6336 23.2737 15.5681 22.7684C16.9793 22.0055 17.1509 20.1843 15.7445 19.1258C14.9244 18.5108 13.9947 18.1437 13.0412 17.8052C12.1115 17.4762 11.2151 17.0662 10.5095 16.3415C9.56549 15.3784 9.41293 14.1817 10.0947 13.0041C10.6573 12.0362 11.525 11.4927 12.6216 11.3163C14.1044 11.0779 15.4536 11.4259 16.6694 12.308C16.8744 12.4558 16.9126 12.6608 16.7695 12.9135C16.6456 13.1328 16.4453 13.2043 16.226 13.0947C16.1211 13.0422 16.021 12.9755 15.9209 12.9135C15.1199 12.4367 14.2617 12.1411 13.3177 12.1935C12.3832 12.246 11.5679 12.594 11.0053 13.3759C10.4761 14.1006 10.4904 15.1638 11.3486 15.8123C12.0209 16.3224 12.7599 16.6847 13.5608 16.9422C14.4715 17.233 15.3583 17.5954 16.1259 18.1723C17.0699 18.8874 17.7326 19.7695 17.6849 21.0377C17.6516 21.8291 17.3417 22.4918 16.7791 23.0497C15.8732 23.9365 14.7528 24.1653 13.5656 24.2177Z" fill="white"/>
</svg>
