<svg width="26" height="26" viewBox="0 0 26 26" fill="none" xmlns="http://www.w3.org/2000/svg">
<path d="M12.7409 18.8057C13.1036 18.5467 13.5699 18.3395 13.8807 18.0286C14.7096 17.2515 14.7096 16.06 13.7771 15.3347C12.8446 14.5575 11.7566 14.3503 10.565 14.5575C9.99516 14.6612 9.47709 14.8684 9.06263 15.231C8.90721 15.3347 8.85541 15.2828 8.8036 15.1274C8.59637 14.713 8.33733 14.2467 8.1301 13.8322C8.0783 13.7286 8.02649 13.6768 7.97468 13.625C7.30119 13.1587 6.99035 12.4853 6.78312 11.8118C6.52408 10.9828 6.42047 10.1539 6.52408 9.27321C6.57589 8.85875 6.73131 8.70333 7.09396 8.59971C7.09396 8.28887 7.09396 7.92622 7.09396 7.61537C7.09396 6.32019 7.50842 5.18043 8.33733 4.1961C8.95902 3.4708 9.73613 3.00453 10.6687 2.69369C11.8084 2.27923 13 2.22742 14.1916 2.48646C16.1602 2.90092 17.6108 3.93706 18.2843 5.90574C18.5434 6.57923 18.5952 7.30453 18.5434 7.97803C18.5434 8.18525 18.5434 8.39248 18.5434 8.59971C18.9578 8.59971 19.0614 8.91056 19.1132 9.16959C19.2687 10.5166 19.0614 11.8118 18.3361 12.9515C18.2325 13.1069 18.1289 13.2624 18.0253 13.3142C17.6626 13.5732 17.5072 13.8841 17.3518 14.2467C17.0928 14.8166 16.7819 15.3865 16.4711 15.9563C16.4193 16.06 16.4193 16.1636 16.4193 16.2672C16.4193 17.2515 15.953 17.8732 15.1241 18.2877C14.4506 18.6503 13.6735 18.8057 12.9482 18.8057C12.8446 18.8057 12.7928 18.8057 12.7409 18.8057Z" fill="white"/>
<path d="M19.9418 10.0506C19.9418 9.2735 19.89 8.49639 19.9418 7.71928C19.9937 6.78675 19.7864 5.95783 19.372 5.12892C18.6985 3.78193 17.8177 2.64217 16.4708 1.91687C15.2792 1.29518 14.0358 1.08795 12.6888 1.13976C10.8756 1.19157 9.21775 1.70964 7.81895 2.90121C6.62738 3.88554 5.95389 5.23253 5.74666 6.73494C5.74666 6.83856 5.74666 6.94217 5.74666 7.04579C5.74666 8.96265 5.74666 10.8795 5.74666 12.7964C5.74666 14.3506 7.04184 15.9048 8.54425 16.2157C8.64787 16.2157 8.80329 16.2675 8.9069 16.2675C9.16594 16.3193 9.37317 16.2675 9.52859 16.0084C9.94305 15.594 10.4611 15.4386 11.031 15.4386C11.7045 15.3868 12.378 15.4904 12.9479 15.9566C13.5696 16.4747 13.5696 17.0446 12.8961 17.5108C12.2744 17.9253 11.6009 18.0807 10.9274 17.9771C10.3575 17.9253 9.78763 17.7699 9.42498 17.3036C9.37317 17.2518 9.26955 17.2518 9.21775 17.2518C7.14546 17.2 5.85028 16.0084 5.02136 14.1952C5.02136 14.1434 4.96955 14.0916 4.96955 14.0398C4.91775 13.8325 4.81413 13.7289 4.6069 13.7289C4.29606 13.7289 3.98522 13.6771 3.67437 13.4699C3.31172 13.2108 3.10449 12.8482 3.10449 12.3819C3.10449 10.9313 3.10449 9.42892 3.10449 7.97832C3.10449 7.1494 3.82979 6.68313 4.39967 6.68313C4.6069 6.68313 4.65871 6.63133 4.71052 6.4241C5.12497 4.14458 6.26473 2.38313 8.28522 1.24337C9.42498 0.621687 10.6165 0.207229 11.9117 0.103614C12.3262 0.0518072 12.7406 0 13.1551 0C16.419 0.103614 18.8021 1.50241 20.2527 4.45542C20.5635 5.07711 20.7708 5.7506 20.978 6.4241C21.0298 6.57952 21.0816 6.63133 21.2888 6.68313C21.9105 6.73494 22.5322 7.20121 22.5322 8.03012C22.5322 9.48073 22.5322 10.9313 22.5322 12.3819C22.5322 13.1072 22.0141 13.6253 21.2888 13.6771C20.8744 13.7289 20.5117 13.6771 20.0973 13.6771C19.89 13.6771 19.89 13.5217 19.89 13.3663C19.9418 12.2783 19.9418 11.1386 19.9418 10.0506Z" fill="white"/>
<path d="M25.6915 25.7993C22.2204 25.7993 18.8012 25.7993 15.3301 25.7993C15.4337 25.5403 15.4855 25.2812 15.5891 25.0222C16.418 22.8463 17.2469 20.6186 18.0759 18.4427C18.1277 18.2873 18.2313 18.2354 18.3867 18.3391C19.5783 19.0644 20.7698 19.6342 22.065 20.1005C22.7385 20.3595 23.412 20.5668 24.0855 20.8258C25.018 21.1885 25.4843 21.862 25.5361 22.8463C25.5879 23.727 25.5879 24.6077 25.6397 25.4367C25.6915 25.5921 25.6915 25.6957 25.6915 25.7993Z" fill="white"/>
<path d="M10.3575 25.8002C6.88646 25.8002 3.46718 25.8002 -0.00390625 25.8002C0.047901 24.7123 0.0997082 23.6243 0.203323 22.5882C0.25513 22.0701 0.617781 21.7593 1.08405 21.6038C1.80935 21.293 2.53465 20.9821 3.25995 20.7231C4.65875 20.205 6.00573 19.5315 7.30092 18.7544C7.50814 18.599 7.61176 18.599 7.71537 18.9099C8.28525 20.3605 8.85513 21.8111 9.37321 23.2617C9.68405 24.0388 9.94308 24.7641 10.2539 25.5412C10.3057 25.593 10.3057 25.6966 10.3575 25.8002Z" fill="white"/>
<path d="M13.6215 21.9142C13.8805 23.2612 14.0878 24.5046 14.3468 25.7998C13.3625 25.7998 12.3781 25.7998 11.342 25.7998C11.3938 25.5407 11.4456 25.2817 11.4974 25.0227C11.6528 24.1419 11.8601 23.2612 12.0155 22.4323C12.0155 22.3805 12.0155 22.2769 12.0673 22.2251C12.1191 22.0179 12.0673 21.966 11.8601 21.966C11.342 21.966 11.1348 21.7588 11.1348 21.2407C11.1348 20.9299 11.1348 20.6709 11.1348 20.36C11.1348 19.9456 11.3938 19.6865 11.8083 19.6865C12.5336 19.6865 13.3107 19.6865 14.036 19.6865C14.3468 19.6865 14.6059 19.8938 14.6577 20.2564C14.7095 20.6709 14.7095 21.0853 14.6577 21.4998C14.6059 21.8624 14.3986 22.0178 14.036 22.0178C13.8805 21.9142 13.7769 21.9142 13.6215 21.9142Z" fill="white"/>
</svg>
