<svg width="23" height="26" viewBox="0 0 23 26" fill="none" xmlns="http://www.w3.org/2000/svg">
<path d="M11.7754 25.9032C9.30064 25.9032 6.82586 25.8989 4.35108 25.9074C2.98141 25.9117 2.15364 25.1735 1.76962 23.9404C1.58188 23.3302 1.58615 22.6902 1.53921 22.0587C1.41121 20.3733 1.27893 18.6879 1.1808 16.9982C1.12106 15.9614 1.01439 14.9288 0.963186 13.8919C0.91625 12.9404 0.818112 11.9932 0.745575 11.0459C0.694373 10.3462 0.638904 9.64214 0.596235 8.94237C0.570634 8.49009 0.681572 8.09327 1.11253 7.85432C1.31734 7.74338 1.54775 7.72205 1.77389 7.72205C3.3313 7.72205 4.8887 7.72205 6.44611 7.72205C6.89413 7.72205 6.88559 7.71778 6.91546 7.2783C7.00933 5.9769 7.27815 4.71818 7.84137 3.53625C8.31926 2.52501 8.97636 1.65457 10.0175 1.16814C11.6303 0.417176 13.4907 0.749992 14.7025 2.15379C15.6583 3.25891 16.1575 4.55604 16.4348 5.9641C16.5372 6.48039 16.6183 6.99668 16.6268 7.52577C16.6311 7.67085 16.7122 7.72205 16.8487 7.71778C17.1133 7.71352 17.3735 7.71778 17.6381 7.71778C19.0888 7.72205 20.5396 7.73912 21.9903 7.72205C22.434 7.71778 22.9503 8.18714 22.9503 8.60529C22.9503 8.89544 22.9589 9.18985 22.9375 9.48C22.8479 10.5638 22.7967 11.6518 22.7071 12.7356C22.6218 13.7895 22.5407 14.8434 22.4682 15.8974C22.3999 16.9129 22.3188 17.9241 22.242 18.9354C22.1738 19.857 22.1396 20.7787 22.05 21.7003C21.9818 22.4043 22.0159 23.1254 21.7983 23.8124C21.5252 24.6828 21.0729 25.4039 20.1683 25.7368C19.8867 25.8392 19.5966 25.9032 19.2936 25.9032C16.7933 25.9074 14.2843 25.9074 11.7754 25.9032C11.7754 25.9074 11.7754 25.9074 11.7754 25.9032ZM11.7797 7.72205C12.3344 7.72205 12.8891 7.72205 13.4438 7.72205C13.9985 7.72205 14.5532 7.72205 15.1078 7.72205C15.3724 7.72205 15.3809 7.70925 15.3596 7.44044C15.3127 6.87294 15.2188 6.31398 15.0865 5.75929C14.8518 4.76084 14.4891 3.8264 13.8235 3.02423C13.0171 2.04712 11.6816 1.77404 10.5295 2.3586C9.71879 2.76822 9.25797 3.48932 8.90809 4.29149C8.4686 5.2942 8.27233 6.34812 8.21259 7.43617C8.19552 7.72205 8.19552 7.72205 8.4814 7.72205C9.57799 7.72632 10.6788 7.72632 11.7797 7.72205ZM12.0357 22.4513C13.0981 22.4043 14.1051 22.1995 14.903 21.4102C15.4065 20.9152 15.6839 20.3221 15.7137 19.6095C15.7607 18.4745 15.1676 17.6852 14.3185 17.0452C13.6315 16.5246 12.8379 16.2046 12.0229 15.9443C11.3061 15.7182 10.6447 15.3896 10.0431 14.9331C9.27504 14.3528 9.26651 13.4012 9.73586 12.7527C10.2436 12.0572 10.969 11.7414 11.8053 11.6945C12.6459 11.6476 13.4139 11.9121 14.135 12.3388C14.2246 12.3943 14.3142 12.454 14.4081 12.5009C14.6044 12.5948 14.7836 12.5308 14.8945 12.3388C15.0225 12.1127 14.9884 11.9292 14.8049 11.7969C13.7168 11.0075 12.5093 10.6961 11.1823 10.9094C10.2052 11.0673 9.42865 11.5537 8.92089 12.4199C8.30646 13.4738 8.44727 14.5448 9.29211 15.4067C9.9236 16.051 10.7258 16.4222 11.5578 16.7166C12.4112 17.0195 13.2432 17.3481 13.9771 17.8985C15.2358 18.8458 15.0822 20.4714 13.8192 21.1584C12.9829 21.6107 12.0997 21.6747 11.1909 21.4912C10.3332 21.3205 9.56519 20.9493 8.85689 20.4416C8.59661 20.2581 8.3534 20.2922 8.18272 20.5269C8.04191 20.7189 8.09738 20.9493 8.33633 21.1328C9.43291 21.9606 10.6575 22.4043 12.0357 22.4513Z" fill="#FDFCFB"/>
<path d="M12.036 22.4514C10.6621 22.4045 9.43325 21.9607 8.3452 21.1287C8.10626 20.9452 8.05079 20.7148 8.1916 20.5228C8.36227 20.2881 8.60548 20.254 8.86576 20.4375C9.57406 20.9452 10.3421 21.3164 11.1997 21.4871C12.1086 21.6663 12.9918 21.6066 13.8281 21.1543C15.0911 20.4716 15.2447 18.8417 13.986 17.8944C13.2521 17.344 12.4201 17.0154 11.5667 16.7125C10.7346 16.4181 9.93248 16.0511 9.30098 15.4026C8.45614 14.5407 8.3196 13.4697 8.92976 12.4158C9.43325 11.5496 10.2098 11.0632 11.1912 10.9053C12.5182 10.6919 13.7257 11.0034 14.8138 11.7928C14.9972 11.9251 15.0314 12.1085 14.9034 12.3347C14.7924 12.531 14.6132 12.595 14.417 12.4968C14.3231 12.4499 14.2335 12.3902 14.1439 12.3347C13.427 11.908 12.659 11.6435 11.8142 11.6904C10.9779 11.7373 10.2482 12.0488 9.74473 12.7486C9.27111 13.3971 9.28391 14.3486 10.0519 14.9289C10.6536 15.3855 11.3149 15.7098 12.0318 15.9402C12.8467 16.2005 13.6404 16.5247 14.3273 17.041C15.1722 17.6811 15.7653 18.4704 15.7226 19.6054C15.6927 20.3137 15.4154 20.9068 14.9119 21.406C14.1012 22.1997 13.0985 22.4045 12.036 22.4514Z" fill="#FC5722"/>
</svg>
