<svg width="45" height="43" viewBox="0 0 45 43" fill="none" xmlns="http://www.w3.org/2000/svg">
<path d="M8.42316 37.4331C8.9067 37.5048 9.39024 37.5764 9.87378 37.6122C10.4648 37.648 11.0737 37.648 11.6647 37.6122C13.2048 37.5227 14.6734 37.1466 16.1419 36.6989C16.7687 36.5019 17.3956 36.3228 18.0403 36.1616C18.5955 36.0183 19.1327 36.0362 19.67 36.2332C20.6013 36.5556 21.5504 36.8242 22.4996 37.0391C23.5741 37.2898 24.6666 37.4689 25.7591 37.5585C26.744 37.648 27.7469 37.6838 28.7319 37.648C31.0064 37.5764 33.2092 37.1645 35.3762 36.466C37.3461 35.8213 39.2266 34.9617 40.9817 33.8155C42.1637 33.0275 43.274 32.1321 44.2769 31.1292C44.3307 31.0754 44.3844 31.0217 44.4381 30.9501C44.4918 30.8784 44.5635 30.8247 44.6709 30.8247C44.6709 32.7589 44.6888 34.693 44.6709 36.6451C44.6709 37.1287 44.5635 37.5943 44.4202 38.0599C44.2232 38.7226 43.9187 39.3315 43.5068 39.9046C43.2024 40.3165 42.8442 40.6746 42.4681 41.0149C41.9129 41.4985 41.2682 41.8566 40.5698 42.1074C40.1579 42.2685 39.7101 42.3581 39.2803 42.4118C39.0117 42.4476 38.7431 42.4476 38.4565 42.4476C30.29 42.4476 22.1235 42.4476 13.9391 42.4476C13.7063 42.4476 13.5451 42.3581 13.384 42.2148C13.2586 42.1074 13.1511 41.9999 13.0437 41.8745C12.6855 41.4985 12.3094 41.1582 11.9333 40.8C11.5572 40.4418 11.1811 40.1016 10.823 39.7613C10.3752 39.3494 9.92751 38.9196 9.4977 38.5077C9.21115 38.239 8.90669 37.9704 8.62015 37.7018C8.5127 37.6122 8.45897 37.5406 8.42316 37.4331Z" fill="white"/>
<path d="M15.3902 21.1346C15.4976 21.1346 15.5693 21.1346 15.6409 21.1346C16.9125 21.1346 18.184 21.1346 19.4555 21.1346C19.6167 21.1346 19.76 21.1346 19.9212 21.1704C20.5838 21.2778 20.8883 21.7256 20.8345 22.3703C20.7987 22.9255 20.4405 23.2657 19.8853 23.3553C19.76 23.3732 19.6346 23.3732 19.4914 23.3732C17.6825 23.3732 15.8737 23.3732 14.047 23.3732C13.7247 23.3732 13.4202 23.3553 13.1158 23.3015C12.2024 23.1225 11.9338 22.2091 12.2024 21.5823C12.2919 21.3674 12.4173 21.1883 12.5606 21.0092C14.0112 19.1646 15.4618 17.32 16.9125 15.4753C17.0199 15.35 17.1095 15.2246 17.199 15.0992C17.2527 15.0097 17.2348 14.956 17.1453 14.9381C17.1095 14.9381 17.0736 14.9381 17.0378 14.9381C15.9454 14.9381 14.8529 14.9381 13.7426 14.9381C13.5098 14.9381 13.2769 14.9201 13.062 14.8664C12.5964 14.759 12.274 14.3471 12.274 13.8814C12.274 13.4158 12.5964 13.0218 13.062 12.8964C13.3128 12.8427 13.5456 12.8069 13.7963 12.8069C15.5514 12.789 17.2886 12.789 19.0436 12.8069C19.2764 12.8069 19.5093 12.8427 19.7421 12.8964C20.4405 13.0576 20.7808 13.7023 20.5122 14.365C20.4226 14.5799 20.3152 14.7769 20.1898 14.9739C19.9749 15.3141 19.7421 15.6186 19.4914 15.941C18.2019 17.5707 16.9304 19.1825 15.6409 20.8122C15.5872 20.9017 15.4976 21.0092 15.3902 21.1346Z" fill="white"/>
<path d="M26.6009 16.0487C26.7083 15.9412 26.7979 15.8338 26.8874 15.7263C27.3351 15.2607 27.9978 15.2965 28.4276 15.5651C28.7321 15.7621 28.9111 16.0308 28.9469 16.389C28.9649 16.6039 28.9649 16.8009 28.9649 17.0158C28.9828 18.7708 28.9649 20.508 28.9649 22.2631C28.9649 23.0869 28.3201 23.4988 27.6933 23.4988C27.353 23.4988 27.0844 23.3555 26.8516 23.1048C26.8158 23.069 26.78 23.0153 26.7442 22.9795C26.6367 22.872 26.565 22.8541 26.4397 22.9436C26.4218 22.9615 26.386 22.9795 26.3681 22.9974C25.4726 23.7137 24.4876 23.8391 23.4131 23.4988C22.1595 23.0869 21.3715 22.2273 21.0133 20.9737C20.7984 20.2036 20.7088 19.4156 20.8163 18.6276C20.9775 17.4993 21.5326 16.6039 22.4818 15.9591C22.9116 15.6726 23.3594 15.4398 23.8787 15.3144C24.7383 15.1174 25.5263 15.3144 26.2427 15.798C26.3143 15.8517 26.386 15.8875 26.4397 15.9412C26.4755 15.9591 26.5292 15.995 26.6009 16.0487ZM26.5292 19.3081C26.5292 19.0753 26.4755 18.735 26.3143 18.3948C26.1352 18.0187 25.8845 17.7321 25.4905 17.5709C24.8458 17.3202 23.8608 17.4098 23.3952 18.3948C23.2698 18.6634 23.2161 18.932 23.1803 19.2186C23.1265 19.7558 23.2161 20.2394 23.5205 20.6871C24.1832 21.6542 25.6159 21.6005 26.2069 20.5976C26.4397 20.2394 26.5292 19.8454 26.5292 19.3081Z" fill="white"/>
<path d="M33.2991 19.5409C33.2812 18.556 33.514 17.6426 34.105 16.8367C34.7856 15.9054 35.7168 15.3861 36.8809 15.2607C37.5794 15.1891 38.2599 15.2607 38.9225 15.5114C40.0866 15.9412 40.8746 16.7471 41.2686 17.9112C41.6268 19.0037 41.6089 20.0961 41.1791 21.1707C40.7851 22.1915 40.0687 22.9078 39.0479 23.3197C37.8659 23.7854 36.666 23.8212 35.5019 23.2481C34.2841 22.6571 33.5677 21.6721 33.3349 20.3289C33.317 20.1857 33.2991 20.0603 33.2991 19.917C33.2991 19.8096 33.2991 19.6663 33.2991 19.5409ZM35.7168 19.3798C35.6989 19.8454 35.8064 20.2394 36.0213 20.6155C36.3615 21.1528 36.8451 21.4214 37.4719 21.4035C38.0808 21.3677 38.5465 21.0632 38.8151 20.508C39.1554 19.8096 39.1554 19.0753 38.8151 18.359C38.5285 17.7859 38.0629 17.4814 37.4182 17.4635C36.7555 17.4635 36.272 17.7501 35.9676 18.341C35.7706 18.6813 35.7168 19.0395 35.7168 19.3798Z" fill="white"/>
<path d="M30.0217 17.6798C30.0217 16.2113 30.0217 14.7427 30.0217 13.2742C30.0217 13.0951 30.0396 12.9339 30.0754 12.7727C30.2008 12.3071 30.5948 12.0027 31.0604 11.9668C31.2216 11.9489 31.3649 11.9489 31.526 11.9848C32.0275 12.0922 32.3499 12.4504 32.4215 12.9697C32.4573 13.2205 32.4394 13.4533 32.4394 13.704C32.4394 15.1188 32.4394 16.5336 32.4394 17.9484C32.4394 19.3453 32.4394 20.7601 32.4394 22.157C32.4394 22.372 32.4036 22.5869 32.314 22.8018C32.0633 23.3211 31.5082 23.6077 30.9351 23.5002C30.4694 23.4107 30.2008 23.0883 30.0575 22.6585C30.0038 22.4973 30.0038 22.3182 30.0038 22.157C30.0217 20.6348 30.0217 19.1662 30.0217 17.6798Z" fill="white"/>
<path d="M44.0624 3.96061C43.8295 3.5487 43.5609 3.17261 43.2565 2.81443C42.6655 2.13389 41.967 1.61453 41.1611 1.23844C40.588 0.969807 39.9791 0.790717 39.3523 0.701172C39.3344 0.701172 39.2986 0.701172 39.2807 0.701172C39.2628 0.701172 39.2269 0.701172 39.1911 0.701172H6.05953C6.02371 0.701172 6.0058 0.701172 5.96998 0.701172C5.95207 0.701172 5.93416 0.701172 5.91625 0.701172C5.4327 0.754899 4.96707 0.91608 4.50143 1.02353C4.35816 1.05935 4.23281 1.13099 4.08954 1.18471C3.212 1.50708 2.49563 2.04435 1.88673 2.7428C1.18828 3.5487 0.758458 4.47997 0.561459 5.5366C0.507733 5.82314 0.471919 6.10968 0.45401 6.41414C0.45401 6.43205 0.45401 6.43205 0.45401 6.44995V36.8236C0.45401 37.0385 0.471932 37.2534 0.489841 37.4862C0.525659 37.8444 0.579382 38.2026 0.686835 38.5428C0.937561 39.3846 1.33155 40.1367 1.90463 40.7994C2.76426 41.7844 3.82091 42.3933 5.07453 42.6619C5.11035 42.6619 5.14617 42.6798 5.16408 42.6798H16.6975C23.9864 42.6798 31.2575 42.6798 38.5464 42.6798C39.2807 42.6798 39.997 42.5365 40.6776 42.2858C41.3223 42.053 41.9133 41.7127 42.4506 41.2829C42.8983 40.9247 43.2923 40.5128 43.6325 40.0293C43.9728 39.5457 44.2594 39.0264 44.4564 38.4891C44.5817 38.1488 44.6534 37.7907 44.725 37.4146C44.725 37.3967 44.725 37.3788 44.725 37.3429C44.725 37.325 44.725 37.2892 44.725 37.2713V6.03805C44.725 6.02014 44.725 5.98432 44.725 5.96641C44.725 5.9485 44.725 5.93059 44.725 5.89478C44.6176 5.21423 44.4026 4.56951 44.0624 3.96061ZM44.6534 30.5733C44.6534 30.6629 44.6534 30.7524 44.6534 30.842C44.6534 32.7762 44.6713 34.7103 44.6534 36.6624C44.6534 37.1459 44.5459 37.6116 44.4026 38.0772C44.2056 38.7398 43.9012 39.3487 43.4893 39.9218C43.1848 40.3337 42.8266 40.6919 42.4506 41.0322C41.8954 41.5157 41.2507 41.8739 40.5522 42.1246C40.1403 42.2858 39.6926 42.3754 39.2628 42.4291C38.9941 42.4649 38.7255 42.4649 38.4389 42.4649C30.2724 42.4649 22.106 42.4649 13.9216 42.4649C13.6888 42.4649 13.5276 42.3754 13.3664 42.2321C13.241 42.1246 13.1336 42.0172 13.0261 41.8918C12.6679 41.5157 12.2918 41.1755 11.9158 40.8173C11.5397 40.4591 11.1636 40.1188 10.8054 39.7786C10.3577 39.3667 9.90995 38.9368 9.48014 38.5249C9.19359 38.2563 8.88914 37.9877 8.60259 37.719C8.54887 37.6832 8.51306 37.6295 8.47724 37.5937C8.42351 37.522 8.36979 37.4504 8.29815 37.4146C8.24442 37.3967 8.20861 37.3609 8.1907 37.2892C8.17279 37.1639 8.28023 37.1101 8.35186 37.0564C8.8175 36.7519 9.28314 36.4475 9.73087 36.1251C10.3756 35.6416 10.9666 35.1222 11.4501 34.4954C11.7188 34.1372 11.9695 33.7611 12.1486 33.3492C12.2202 33.1702 12.2919 32.9911 12.3098 32.812C12.3635 32.4359 12.2739 32.0956 12.059 31.7732C11.9158 31.5583 11.7367 31.3613 11.5397 31.1643C10.2681 29.8928 9.15777 28.4959 8.24441 26.9378C7.2236 25.2186 6.50726 23.3739 6.13117 21.4039C5.84462 19.9175 5.73716 18.4132 5.8267 16.8909C5.88043 15.7447 6.0237 14.6344 6.27443 13.524C6.74006 11.5003 7.54597 9.63775 8.65633 7.90058C10.4472 5.10678 12.7754 2.86816 15.6229 1.18471C15.7841 1.09517 15.9811 1.02353 16.1244 0.880262C16.1423 0.862353 16.1781 0.862353 16.2139 0.862353C16.2497 0.862353 16.2855 0.862353 16.3214 0.862353C23.6999 0.862353 31.0784 0.844444 38.4569 0.862353C40.8209 0.862353 42.6117 1.97271 43.8116 3.97851C44.3668 4.87396 44.6175 5.87687 44.6175 6.9335C44.6175 7.02304 44.6175 7.11259 44.6175 7.20213C44.6534 14.9746 44.6534 22.765 44.6534 30.5733Z" fill="white"/>
</svg>
